<?xml version="1.0" encoding="utf-8"?>
<!-- Generator: Adobe Illustrator 28.1.0, SVG Export Plug-In . SVG Version: 6.00 Build 0)  -->
<svg version="1.1" id="Layer_1" xmlns="http://www.w3.org/2000/svg" xmlns:xlink="http://www.w3.org/1999/xlink" x="0px" y="0px"
	 viewBox="0 0 500 171.9" style="enable-background:new 0 0 500 171.9;" xml:space="preserve">
<style type="text/css">
	.st0{fill:#EF9143;}
	.st1{fill:#FFFFFF;}
</style>
<g>
	<path class="st0" d="M293.9,148.2V80h11.5c2.2,0,3.2-2.7,1.5-4.1L260.7,38V14c0,0,43.4,41.2,122.1,68.8l-9.7,14.5
		c-16-4.9-27-9.3-32.5-11.6c-1.9-0.8-3.8,0.8-3.4,2.8c2.2,10.3,10.7,34.1,28.4,59.6h-23.6c0,0-10.6-13.9-19.9-36
		c-1.2-2.9-5.6-2.1-5.6,1.1v34.9L293.9,148.2L293.9,148.2z"/>
	<g>
		<path class="st1" d="M206.1,148.2V80h-11.5c-2.2,0-3.2-2.7-1.5-4.1L239.3,38V14c0,0-43.4,41.2-122.1,68.8l9.7,14.5
			c16-4.9,27-9.3,32.6-11.6c1.9-0.8,3.8,0.8,3.4,2.8c-2.2,10.3-10.7,34.1-28.4,59.6h23.6c0,0,10.6-13.9,19.9-36
			c1.2-2.9,5.6-2.1,5.6,1.1v34.9L206.1,148.2L206.1,148.2z"/>
		<ellipse class="st1" cx="176" cy="23.6" rx="16.6" ry="19"/>
		<ellipse class="st0" cx="324" cy="23.6" rx="16.6" ry="19"/>
		<rect x="232.4" y="89.1" class="st1" width="35.3" height="35.3"/>
	</g>
</g>
</svg>
